<?xml version="1.0" encoding="UTF-8" standalone="no"?>
<svg id="svg4217" xmlns:rdf="http://www.w3.org/1999/02/22-rdf-syntax-ns#" xmlns="http://www.w3.org/2000/svg" height="248.01mm" width="247.17mm" version="1.1" xmlns:cc="http://creativecommons.org/ns#" xmlns:dc="http://purl.org/dc/elements/1.1/" viewBox="0 0 875.78493 878.76616">
<g id="layer1" transform="translate(197.66 92.869)">
<g id="g4200" transform="matrix(2.9984 0 0 2.9984 -225.4 -121.44)">
<path id="path5" d="m300.52 156c0 80.737-65.064 146.06-145.37 146.06-80.289 0-145.4-65.33-145.4-146.06 0-80.612 65.11-145.97 145.4-145.97 80.3 0.002 145.37 65.356 145.37 145.97z" stroke="#57ab2b" fill="#9d9dff"/>
<path id="path12" d="m167.55 10.139c-1.8403-0.03385-3.6596 0.0115-5.4453 0.14844h-0.008l-2.5488 4.7441-0.48242 6.2031 4.3867 1.3496 0.83985-4.0371 2.1875-2.1738 14.955 6.6953 4.3887 2.1855 11.914-0.96484 3.5117-3.4102 17.174 8.2715h9.2285s-32.497-18.504-60.102-19.012zm-25.596 0.91406c-36.315 0.009-73.472 26.977-73.475 26.977h7.9023l7.5527 1.3555 1.6914-1.834 0.84375-2.1934 1.3496-1.8262 2.1797-2.1934 2.1875-0.36524h1.834l1.3457-0.8418c1.291-0.979 5.7187-2.334 5.7187-2.334l14.93-1.1934 3.5-4.0234s6.9609 0.0012 6.9609 1.3262c0 1.349 1.842 1.7127 1 3.8887-1.001 2.338 5.2129-4.7246 5.2129-4.7246l4.0098-7.5605 6.5762-0.47852 2.1914-3.8945c-1.1684-0.05762-2.3402-0.08428-3.5117-0.08399zm55.281 28.332 0.50977 6.0684-3.9004 4.3887-1.3203 3.1719 10.932-0.49414-1.3418-4.3965-1.3398-3.1543-0.83985-4.748-2.6992-0.83594zm18.744 0.35742-3.8809 4.0176 1.9277 4.623h3.2773l0.60352 6.2734-5.5215-3.2871-3.7109 6.5781-1.6484-0.60742h-2.2383s-0.61789-0.73831-1.3379-0.44531c-0.604 0.445-1.3379-1.9414-1.3379-1.9414l-3.2891 0.60547-1.3359 1.3359-2.2402-1.6445h-3.5898l-0.72656 2.0898 2.3574 0.29883-2.0703 2.5391 0.75195 1.3398c-2.991 0.314-7.8984-1.9453-7.8984-1.9453s-1.3497-0.592-3.3027 0c-2.075 0.604-4.6562 4.3223-4.6562 4.3223l-3.3809 3.5938 3.7285 3.6016h2.5332l3.4062 1.0273 0.61523 1.3398 6.5684-0.31055 5.3691-4.3164 5.2129-1.0312 5.2246 2.0742s5.6521-1.0415 4.9141-0.4375c-0.593 0.727 2.9785 5.6641 2.9785 5.6641l2.3945 5.6523 2.2324 3.2891 0.45117 3.5898 1.6309-0.29297 5.5234 0.60352-1.9238-2.998-3.2832-2.2402-2.3984-6.2559-1.6426-4.0215 2.3926-0.91211 1.9414 3.5859 2.2207 3.2832 5.373 2.6914v3.5703l1.3438 2.0996 5.2246 1.918 4.625-2.3867 1.3496-2.2344-1.9531-2.6797h4.9258l4.0039 4.3398 6.5859 3.2734-0.45117 3.5801 4.0156 4.0215-1.6406 1.6484-8.1973-3.582-6.7148-3.7383-12.061 0.74414 0.29297 5.2324 7.6113 4.9316 8.1855 3.4258 6.5664 3.8945-0.5918 4.9043-2.3867 4.6289-3.877-2.5391-8.6367-8.957-1.959 0.31446-7.293-5.6738h-3.2832l-1.0508 4.0215-2.2285-0.30664-0.29297-2.668-13.27-9.8398 2.9785-3.4023 4.0215-1.2207-2.3809-3.4375h-2.252l-5.6465-3.8633-5.2188 1.3359-6.8789-5.666-4.3027 0.28125-4.9434-0.58008-5.041-1.9551-6.2695 0.60352-6.5566 4.625-6.2598 1.0312-2.9824 1.9531-3.582 1.043-1.9648 2.5332-5.63-0.296-6.2578 5.668-0.61328 3.2734-1.3281 5.2539-5.9629 6.2559-0.74414 2.9707v4.6328l2.3926 5.9726 2.9805 5.959 6.5644 11.941 2.6738 1.6387 4.9219 0.31445 6.2617 4.9062 10.883 0.75195 1.6348 2.5508 2.373-0.29882 4.207 4.9297 3.7226-0.60547 1.1895 8.1953-2.8867 4.0273-3.3828 2.9863 1.3555 8.2207 1.0312 13.27s-1.0317 4.2045-1.6367 4.9395c-0.751 0.604-5.377 3.5664-5.377 3.5664l-6.5527 19.535 2.0352 9.8535-1.2891 8.6738-4.0215 5.2129-0.30469 5.0703-1.041 3.2773 4.0195 1.2207 4.2715-1.9707h6.293l9.2539 3 6.8672-3.5898 8.9473-5.3594 5.2129-0.60352 0.74414-7.9141 2.5566-2.9707 5.9394-0.75195 4.3457-3.5801h3.5762l12.812-11.492s1.0371-3.7484 1.0371-5.0664c0-1.209 1.3613-6.8652 1.3613-6.8652l4.9004-7.3203 4.9199-0.29883 5.3516-2.3633 10.164-7.4805 4.3203-7.3262 1.6465-2.959-3.5762-1.3555-1.666 1.9219-4.7539-3.8691-0.29297 1.3438-0.61719-6.4004s1.6484-1.6382-0.72656-3.2852c-2.252-1.639-3.8809-6.5801-3.8809-6.5801l-1.6445-4.6152-0.60352-7.3144 0.60352-2.8398-0.29883-5.0781 0.29883-10.145 3.877 0.89648-1.1777 10.602 2.2324 4.9082v8.0723l0.5918 5.5078 2.375 7.0156 5.6836 7.1894 2.5312-1.959h4.0234l13.123-14.48 0.74219-4.3262-2.6797-3.7031-4.0332-5.2363h-1.1953l-2.6816 1.9199-0.61524-4.5957-2.0625-3.5898s-1.9474 1.033-1.6484-2.248c0.305-3.421 0.75195-5.3691 0.75195-5.3691l2.9531-1.6504 2.2461 5.9629 1.3496 4.623 3.5879 2.9941 4.0215 3.5918 5.8125 5.668 2.0996 6.8574 1.3301 6.7226 3.2715 1.1953-0.27539 10.293-1.0664 16.551 2.9902 1.6484c0.06 0.01 24.84-69.921-38.26-139.06l-0.0488-0.02148s-20.435-6.7086-25.049-11.934l-17.146-1.3379zm-170.87 34.326-6.8965 2.6855h-5.7129s-16.803 29.932-20.328 51.496c-3.537 21.655 0.48438 1.8184 0.48438 1.8184l3.041 11.934 2.1914 11.443-0.35742 10.104 4.3789 7.9004-2.1914 7.9102-0.49414 13.65 2.6875 7.5352 1.6914 8.7656 1.3379 8.0508 2.6855 4.3633 4.3652 12.785-2.6719-18.99-1.6934-3.0332-1.3496-4.3828 0.85156-6.2266 3.5234-2.1855-0.375-7.5566 4.752-3.5332v-4.8496l11.434-14.986 4.3672 1.3301 1.834-2.1738 11.877-22.049 6.6152-1.3262 2.6406-3.041-0.45508-3.0449-4.0195-7.5449-5.7168-3.5391v-8.3867l-8.248-4.4004 0.34375-10.943 1.8359-3.5156-1.8359-3.043-4.875-2.7012-1.1816-4.8555 0.83984-8.4141-5.375-7.0488zm195.68 151.19l-6.5606 5.2266-7.3984 0.49805-4.0332 3.0391-1.3438 3.5274-4.3633 3.8945h0.0332c0 0.91035-3.3362 0.97204-3.7598 0.97656 0.11305 0.18349 0.30551 0.50789 0.68554 1.3457l-2.6719 3.0332v3.8906l8.7461-0.86719 9.748-10.939 5.1992-5.7324 3.1855-0.48047 3.877-3.8789-1.3438-3.5332zm-27.426 17.162c-0.13564-0.22014-0.1504-0.22339-0.1504-0.49609v0.5s0.12264-0.004 0.1504-0.004zm-136.47 37.002-0.002 0.002 0.0098 0.002c-0.0023-0.002-0.0055-0.002-0.0078-0.004zm0.0078 0.004c17.982 12.79 47.052 19.36 47.052 19.37l-6.2012-6.5703-40.852-12.785z" fill="#d1e952"/>
<path id="path16910-4" opacity=".531" d="m227.52 29.4c28.079 19.116 39.6 58.687 25.243 89.641-15.354 38.966-65.977 55.036-102.07 35.274-22.08-9.6902-48.862-7.1541-68.864 6.2572-19.885 12.701-32.387 35.597-33.132 59.097-1.3558 23.471 11.011 45.916 28.214 60.918 39.013 24.786 90.263 28.983 132.89 10.882 54.778-21.581 93.122-79.383 90.58-138.36-0.11734-50.059-28.794-99.801-72.861-123.71zm-42.141 35.803c-0.67535 0.01-1.3509 0.05107-2.0259 0.12379-11.263 1.303-20.854 10.928-22.057 22.203-1.3793 13.57 10.747 27.357 24.616 26.341 16.117 1.2091 29.029-17.449 22.849-32.31-3.296-9.6733-13.252-16.504-23.382-16.358zm-62.96 132.44c11.589-0.005 22.592 9.4347 23.746 21.131 2.154 12.372-7.454 25.062-19.721 27.052-12.484 2.7233-25.679-6.4502-28.044-18.887-3.322-13.206 7.0849-27.393 20.414-28.983 1.2012-0.21076 2.4062-0.31213 3.605-0.31274z"/>
</g>
</g>
</svg>
